<svg width="68" height="68" viewBox="0 0 68 68" fill="none" xmlns="http://www.w3.org/2000/svg">
<g filter="url(#filter0_d_175_43)">
<path fill-rule="evenodd" clip-rule="evenodd" d="M29.2286 12C25.3188 12 22.1744 15.2848 22.1744 19.3088C22.1744 21.7552 23.3376 23.928 25.1255 25.2544C24.204 25.9457 23.4571 26.8436 22.9446 27.8761C22.4322 28.9086 22.1684 30.047 22.1744 31.2C22.1744 33.648 23.3376 35.8192 25.1255 37.1456C24.204 37.8369 23.4571 38.7348 22.9446 39.7673C22.4322 40.7998 22.1684 41.9382 22.1744 43.0912C22.1744 47.1152 25.3188 50.4 29.2286 50.4C33.1368 50.4 36.2828 47.1152 36.2828 43.0912V36.912C37.5184 37.9437 39.0759 38.5092 40.6847 38.5104C44.5944 38.5088 47.7389 35.224 47.7389 31.2C47.7453 30.0469 47.4817 28.9084 46.9691 27.8759C46.4566 26.8433 45.7095 25.9455 44.7878 25.2544C45.7092 24.5631 46.4562 23.6652 46.9686 22.6327C47.4811 21.6002 47.7449 20.4618 47.7389 19.3088C47.7389 15.2848 44.5944 12 40.6847 12H29.2286V12ZM24.8251 19.3088C24.8251 16.7632 26.8096 14.7248 29.2286 14.7248H33.6305V23.8928H29.2286C26.8096 23.8928 24.8251 21.8528 24.8251 19.3088V19.3088ZM40.6847 23.8912H36.2828V14.7232H40.6847C43.1053 14.7232 45.0881 16.7632 45.0881 19.3088C45.0881 21.8528 43.1053 23.8912 40.6847 23.8912ZM24.8267 31.2C24.8267 28.656 26.8112 26.616 29.2302 26.616H33.6321V35.784H29.2286C26.808 35.784 24.8251 33.744 24.8251 31.2H24.8267ZM36.2828 31.2C36.2828 28.656 38.2672 26.616 40.6863 26.616C43.1069 26.616 45.0897 28.6544 45.0897 31.2C45.0897 33.744 43.1069 35.784 40.6863 35.784C38.2672 35.784 36.2844 33.7456 36.2844 31.2H36.2828ZM24.8267 43.0912C24.8267 40.5472 26.8112 38.5088 29.2302 38.5088H33.6321V43.0912C33.6321 45.6368 31.6508 47.6752 29.2302 47.6752C26.8112 47.6752 24.8267 45.6368 24.8267 43.0912Z" fill="white"/>
<circle cx="34" cy="30" r="30" fill="white" fill-opacity="0.25"/>
</g>
<defs>
<filter id="filter0_d_175_43" x="0" y="0" width="68" height="68" filterUnits="userSpaceOnUse" color-interpolation-filters="sRGB">
<feFlood flood-opacity="0" result="BackgroundImageFix"/>
<feColorMatrix in="SourceAlpha" type="matrix" values="0 0 0 0 0 0 0 0 0 0 0 0 0 0 0 0 0 0 127 0" result="hardAlpha"/>
<feOffset dy="4"/>
<feGaussianBlur stdDeviation="2"/>
<feComposite in2="hardAlpha" operator="out"/>
<feColorMatrix type="matrix" values="0 0 0 0 0 0 0 0 0 0 0 0 0 0 0 0 0 0 0.25 0"/>
<feBlend mode="normal" in2="BackgroundImageFix" result="effect1_dropShadow_175_43"/>
<feBlend mode="normal" in="SourceGraphic" in2="effect1_dropShadow_175_43" result="shape"/>
</filter>
</defs>
</svg>
