<svg width="68" height="68" viewBox="0 0 68 68" fill="none" xmlns="http://www.w3.org/2000/svg">
<g filter="url(#filter0_d_175_40)">
<circle cx="34" cy="30" r="30" fill="white" fill-opacity="0.25"/>
<path d="M47.3739 14.3693C46.4021 14.3539 44.1445 14.7055 40.3754 17.3937C38.3211 16.8466 36.1353 16.5766 33.9459 16.5766C31.5368 16.5766 29.1023 16.9026 26.832 17.5662C21.4205 13.6323 19.0319 14.4385 19.0319 14.4385C17.4725 18.5938 18.4361 21.6703 18.729 22.4343C16.8962 24.5422 15.7773 27.2338 15.7773 30.5326C15.7773 33.023 16.0433 35.2568 16.6932 37.1986C16.7293 37.3484 16.7176 37.315 16.7783 37.4433C16.9215 37.8453 17.0807 38.2355 17.2596 38.6123C17.3209 38.7479 17.3767 38.8483 17.3767 38.8483C19.2036 42.4771 22.805 44.8211 29.2128 45.5571L38.9041 45.5688C45.7377 44.8468 49.0168 42.4957 50.5278 38.8424L50.6239 38.6045C50.7671 38.2355 50.8919 37.8515 51.2333 36.559C51.5747 35.2664 51.7274 33.028 51.7274 30.5316C51.7274 26.9512 50.4654 24.0864 48.4161 21.9068C48.7742 20.6751 49.2526 17.9395 47.9385 14.4375C47.9385 14.4375 47.7542 14.3753 47.3739 14.3692L47.3739 14.3693ZM39.7367 27.5082C41.3146 27.5045 42.6663 27.7932 43.6811 28.9277V28.9287C44.9509 30.3496 45.694 32.0651 45.694 33.9138C45.694 42.5455 40.4843 42.7803 34.0584 42.7803C27.6314 42.7803 22.4228 41.5842 22.4228 33.9138C22.4228 32.0773 23.155 30.3721 24.4092 28.957C26.5012 26.5986 30.0415 27.8474 34.0584 27.8474C36.1204 27.8471 38.0569 27.512 39.7367 27.5081L39.7367 27.5082ZM27.7671 30.05C26.43 30.05 25.346 31.9763 25.346 34.3536C25.346 36.7312 26.4299 38.6581 27.7671 38.6581C29.1041 38.6581 30.1881 36.7312 30.1881 34.3536C30.1881 31.9766 29.1042 30.0517 27.7671 30.05ZM40.7568 30.05C39.4198 30.05 38.3358 31.9763 38.3358 34.3536C38.3358 36.7312 39.4197 38.6581 40.7568 38.6581C42.0939 38.6581 43.1779 36.7312 43.1779 34.3536C43.1779 31.9766 42.094 30.0517 40.7568 30.05Z" fill="white"/>
</g>
<defs>
<filter id="filter0_d_175_40" x="0" y="0" width="68" height="68" filterUnits="userSpaceOnUse" color-interpolation-filters="sRGB">
<feFlood flood-opacity="0" result="BackgroundImageFix"/>
<feColorMatrix in="SourceAlpha" type="matrix" values="0 0 0 0 0 0 0 0 0 0 0 0 0 0 0 0 0 0 127 0" result="hardAlpha"/>
<feOffset dy="4"/>
<feGaussianBlur stdDeviation="2"/>
<feComposite in2="hardAlpha" operator="out"/>
<feColorMatrix type="matrix" values="0 0 0 0 0 0 0 0 0 0 0 0 0 0 0 0 0 0 0.25 0"/>
<feBlend mode="normal" in2="BackgroundImageFix" result="effect1_dropShadow_175_40"/>
<feBlend mode="normal" in="SourceGraphic" in2="effect1_dropShadow_175_40" result="shape"/>
</filter>
</defs>
</svg>
