<svg width="60" height="60" viewBox="0 0 60 60" fill="none" xmlns="http://www.w3.org/2000/svg">
<path fill-rule="evenodd" clip-rule="evenodd" d="M22.3476 12.108C24.2644 12.0196 24.8755 12 29.7582 12C34.6409 12 35.252 12.0213 37.1672 12.108C39.0823 12.1947 40.3896 12.5007 41.5335 12.9442C42.7312 13.3975 43.8179 14.106 44.7167 15.0224C45.6318 15.9207 46.3377 17.0073 46.7887 18.2084C47.2332 19.3538 47.5371 20.6629 47.6254 22.5775C47.7136 24.5002 47.7332 25.1122 47.7332 30C47.7332 34.8895 47.712 35.5015 47.6254 37.4209C47.5387 39.3355 47.2332 40.6445 46.7887 41.79C46.3377 42.9912 45.6306 44.0796 44.7167 44.9793C43.8179 45.8956 42.7312 46.6025 41.5335 47.0542C40.3896 47.4993 39.0823 47.8036 37.1704 47.892C35.252 47.9804 34.6409 48 29.7582 48C24.8755 48 24.2644 47.9787 22.3476 47.892C20.4357 47.8053 19.1284 47.4993 17.9846 47.0542C16.785 46.6025 15.6982 45.8944 14.7997 44.9793C13.8853 44.0804 13.1776 42.9925 12.7261 41.7916C12.2832 40.6462 11.9793 39.3371 11.8911 37.4225C11.8028 35.4998 11.7832 34.8878 11.7832 30C11.7832 25.1105 11.8044 24.4985 11.8911 22.5807C11.9777 20.6629 12.2832 19.3538 12.7261 18.2084C13.1783 17.0074 13.8865 15.9196 14.8014 15.0207C15.6986 14.1052 16.7843 13.3965 17.9829 12.9442C19.1268 12.5007 20.4341 12.1964 22.346 12.108H22.3476ZM37.0217 15.348C35.1262 15.2613 34.5575 15.2433 29.7582 15.2433C24.9589 15.2433 24.3902 15.2613 22.4947 15.348C20.7413 15.4282 19.7902 15.7211 19.1562 15.9682C18.3179 16.2955 17.7182 16.6833 17.0891 17.3133C16.4927 17.8943 16.0338 18.6016 15.7459 19.3833C15.4991 20.0182 15.2066 20.9705 15.1266 22.7264C15.0399 24.6245 15.022 25.194 15.022 30C15.022 34.806 15.0399 35.3755 15.1266 37.2736C15.2066 39.0295 15.4991 39.9818 15.7459 40.6167C16.0335 41.3973 16.4927 42.1058 17.0891 42.6867C17.6692 43.284 18.3768 43.7438 19.1562 44.0318C19.7902 44.2789 20.7413 44.5718 22.4947 44.652C24.3902 44.7387 24.9572 44.7567 29.7582 44.7567C34.5592 44.7567 35.1262 44.7387 37.0217 44.652C38.7751 44.5718 39.7262 44.2789 40.3602 44.0318C41.1985 43.7045 41.7982 43.3167 42.4273 42.6867C43.0238 42.1058 43.4829 41.3973 43.7705 40.6167C44.0173 39.9818 44.3098 39.0295 44.3899 37.2736C44.4765 35.3755 44.4944 34.806 44.4944 30C44.4944 25.194 44.4765 24.6245 44.3899 22.7264C44.3098 20.9705 44.0173 20.0182 43.7705 19.3833C43.4437 18.5438 43.0564 17.9433 42.4273 17.3133C41.8471 16.7161 41.1408 16.2565 40.3602 15.9682C39.7262 15.7211 38.7751 15.4282 37.0217 15.348V15.348ZM27.4623 35.5489C28.7445 36.0834 30.1722 36.1555 31.5017 35.753C32.8311 35.3505 33.9797 34.4982 34.7513 33.3419C35.523 32.1855 35.8698 30.7967 35.7325 29.4127C35.5952 28.0287 34.9824 26.7354 33.9987 25.7536C33.3716 25.1261 32.6133 24.6455 31.7785 24.3466C30.9437 24.0477 30.053 23.9379 29.1707 24.025C28.2884 24.1122 27.4364 24.3941 26.676 24.8506C25.9156 25.307 25.2657 25.9267 24.7731 26.6648C24.2805 27.403 23.9575 28.2414 23.8273 29.1196C23.6971 29.9978 23.763 30.8939 24.0202 31.7436C24.2773 32.5932 24.7195 33.3752 25.3147 34.0332C25.9099 34.6912 26.6433 35.2088 27.4623 35.5489ZM23.2251 23.4578C24.083 22.5987 25.1016 21.9172 26.2225 21.4522C27.3435 20.9873 28.5449 20.748 29.7582 20.748C30.9715 20.748 32.1729 20.9873 33.2939 21.4522C34.4148 21.9172 35.4334 22.5987 36.2913 23.4578C37.1492 24.3169 37.8298 25.3369 38.2941 26.4594C38.7584 27.5819 38.9974 28.785 38.9974 30C38.9974 31.215 38.7584 32.4181 38.2941 33.5406C37.8298 34.6631 37.1492 35.6831 36.2913 36.5422C34.5586 38.2773 32.2086 39.252 29.7582 39.252C27.3078 39.252 24.9578 38.2773 23.2251 36.5422C21.4924 34.8071 20.519 32.4538 20.519 30C20.519 27.5462 21.4924 25.1929 23.2251 23.4578V23.4578ZM41.0465 22.1258C41.2591 21.925 41.4293 21.6835 41.547 21.4156C41.6648 21.1477 41.7276 20.8589 41.7319 20.5662C41.7361 20.2736 41.6817 19.9831 41.5718 19.7119C41.462 19.4407 41.2989 19.1943 41.0922 18.9873C40.8855 18.7804 40.6395 18.6171 40.3687 18.507C40.0978 18.397 39.8077 18.3425 39.5155 18.3468C39.2232 18.351 38.9348 18.414 38.6673 18.5319C38.3998 18.6498 38.1586 18.8202 37.9581 19.0331C37.568 19.4471 37.3545 19.9971 37.3628 20.5662C37.3711 21.1354 37.6005 21.6789 38.0024 22.0814C38.4044 22.4839 38.9471 22.7136 39.5155 22.7219C40.0838 22.7302 40.633 22.5164 41.0465 22.1258V22.1258Z" fill="white"/>
<circle cx="30" cy="30" r="30" fill="white" fill-opacity="0.25"/>
</svg>
