<svg width="68" height="68" viewBox="0 0 68 68" fill="none" xmlns="http://www.w3.org/2000/svg">
<g filter="url(#filter0_d_175_37)">
<path fill-rule="evenodd" clip-rule="evenodd" d="M28.4519 23.9504H34.3861V26.9104C35.2409 25.208 37.433 23.6784 40.7261 23.6784C47.0389 23.6784 48.5376 27.0672 48.5376 33.2848V44.8H42.1465V34.7008C42.1465 31.16 41.2917 29.1632 39.1155 29.1632C36.0973 29.1632 34.843 31.3152 34.843 34.6992V44.8H28.4519V23.9504V23.9504ZM17.4928 44.528H23.8839V23.6784H17.4928V44.528V44.528ZM24.7994 16.88C24.7996 17.4165 24.6934 17.9476 24.4869 18.4426C24.2803 18.9375 23.9776 19.3864 23.5963 19.7632C22.8236 20.5322 21.7777 20.9627 20.6883 20.96C19.6009 20.9593 18.5574 20.5299 17.7836 19.7648C17.4036 19.3868 17.1019 18.9373 16.8957 18.4423C16.6896 17.9473 16.583 17.4164 16.582 16.88C16.582 15.7968 17.0134 14.76 17.7852 13.9952C18.5583 13.2291 19.6022 12.7995 20.6899 12.8C21.7796 12.8 22.8245 13.2304 23.5963 13.9952C24.3664 14.76 24.7994 15.7968 24.7994 16.88Z" fill="white"/>
<circle cx="34" cy="30" r="30" fill="white" fill-opacity="0.25"/>
</g>
<defs>
<filter id="filter0_d_175_37" x="0" y="0" width="68" height="68" filterUnits="userSpaceOnUse" color-interpolation-filters="sRGB">
<feFlood flood-opacity="0" result="BackgroundImageFix"/>
<feColorMatrix in="SourceAlpha" type="matrix" values="0 0 0 0 0 0 0 0 0 0 0 0 0 0 0 0 0 0 127 0" result="hardAlpha"/>
<feOffset dy="4"/>
<feGaussianBlur stdDeviation="2"/>
<feComposite in2="hardAlpha" operator="out"/>
<feColorMatrix type="matrix" values="0 0 0 0 0 0 0 0 0 0 0 0 0 0 0 0 0 0 0.25 0"/>
<feBlend mode="normal" in2="BackgroundImageFix" result="effect1_dropShadow_175_37"/>
<feBlend mode="normal" in="SourceGraphic" in2="effect1_dropShadow_175_37" result="shape"/>
</filter>
</defs>
</svg>
